<svg xmlns="http://www.w3.org/2000/svg" viewBox="0 0 2762.14 2403"><defs><style>.cls-1,.cls-4{fill:#0077b5;}.cls-2,.cls-5{fill:#fff;}.cls-2,.cls-3,.cls-4,.cls-6,.cls-9{stroke:#000;}.cls-2,.cls-3,.cls-4,.cls-6,.cls-7,.cls-9{stroke-miterlimit:10;stroke-width:6px;}.cls-3,.cls-8{fill:#fef7ef;}.cls-6,.cls-7,.cls-9{fill:none;}.cls-7{stroke:#fff;}.cls-9{stroke-linecap:round;}</style></defs><g id="Layer_2" data-name="Layer 2"><g id="Layer_1-2" data-name="Layer 1"><g id="Layer_2-2" data-name="Layer 2"><g id="Layer_1-2-2" data-name="Layer 1-2"><path class="cls-1" d="M661.13,229.32C277,550.56-193.11,1312.32,248.43,1854c842.76,1033.91,1449.36,185.85,2027,21.41S2454.55,291.77,1871.76,84.25C1352.3-100.73,874,51.28,661.13,229.32Z"/><path d="M1523.28,1915.94q-16.59,3.33-33.47,6.6a4.37,4.37,0,0,0-.5.09c-59.85,11.56-122.43,22.29-187,31.91-134.57,20.07-262.46,33.11-376.09,39.35-33.58,1.85-65.92,3.1-96.81,3.76q-18.35.39-36,.51-17.05.12-33.46,0c-177.86-1.53-293.83-25.69-300.58-70.92-7.17-48.16,111.06-109.6,300.58-165.86q16.38-4.86,33.46-9.67,17.65-5,36-9.87,46.3-12.35,96.81-24.13c100.62-23.47,212.74-44.89,331.43-62.59,80.11-11.95,157.85-21.41,231.62-28.42l.5,0q16.89-1.59,33.47-3c326.48-28.17,567.54-7,577.34,58.83C2110.87,1751.08,1866.12,1846.75,1523.28,1915.94Z"/><path d="M2497.87,625.85s-25.18-5.51,2.22-31.4c21.23-20.06,49.79-35.18,57.82-26S2497.87,625.85,2497.87,625.85Z"/><path class="cls-2" d="M1945.61,573s6.32-7.29,0-31.57-29.62-71.88-20.88-73.82,22.94,38.15,27.42,38.64,4.85-5.67,3.34-19.05-10.14-52.89-3.24-52,16.41,11.22,21.81,53.53c0,0,4.1,11.87,8.63-8.64s6.9-57.41,13.6-57.2,13.38,14,9.92,33.89-10.57,47.7-3,45.11,26.13-46,31.52-49.86,8.86,20.51-4.54,44.68S2012,537,2021.54,534.22s34.53-15.54,39.72-8.63-38.43,27-48.35,41.75-43,38.11-43,38.11Z"/><path class="cls-2" d="M2557.24,590.94s-8-5.3-8.54-30.39,9.06-77.21.12-76.71-11.75,42.93-15.93,44.61-6.21-4.14-8.38-17.43-4.54-53.66-11-51-12.75,15.25-6.5,57.44c0,0-.72,12.54-10.64-6s-22.18-53.4-28.57-51.38-9.09,17.12-.38,35.31,23.09,43.06,15.11,42.61-37.58-37.19-43.83-39.47-3,22.13,16.46,41.78,28.37,34,18.47,33.82-37.45-5.61-40.57,2.44,44.29,15.56,57.85,27.11,51.66,25.06,51.66,25.06Z"/><polygon class="cls-2" points="1854.18 2188.36 1855.47 2288.6 1910.57 2304.05 1932.12 2186.52 1854.18 2188.36"/><polygon class="cls-2" points="2283.91 2187.64 2304.14 2299.33 2361.32 2306.93 2360.3 2171.91 2283.91 2187.64"/><path class="cls-3" d="M2439.13,1217.12c-6.79,204.18-69,601.28-69,601.28,30.55,236.76,12.19,390.06,12.19,390.06-38.46,41.33-128.26,5.78-128.26,5.78,1.23-26.91-48.61-262.62-61.31-374.41h0c-1.49-13.1-2.38-23.82-2.5-31.44-1.18-72.65-28.88-335.71-28.88-335.71s-103.41,177.87-126,358.26-99.53,413.38-99.53,413.38c-45.25,13.78-99.54-15-99.54-15s13.57-162.85,18.09-305.65,6.8-125.27,20.37-220.47,61.09-523.62,61.09-523.62S2445.92,1012.93,2439.13,1217.12Z"/><path d="M1926.4,1249.32s174.54,34.45,326.86,1.47-319.72-71.43-319.72-71.43Z"/><path d="M2192.75,1839.82c-1.49-13.1-2.38-23.82-2.5-31.44-1.18-72.65-28.88-335.71-28.88-335.71s30.05-72.66,41.37-86.86c0,0-26.38,150.33,0,228.82C2229,1692.73,2193.11,1838.35,2192.75,1839.82Z"/><path class="cls-2" d="M2245.24,495.27s-44.57,2.69-60,62.67c0,0-2,16.92-19,35.14-6.15,6.61-8,10.43,3.23,18.81,7.56,5.65-13.41,58.31,64.34,66l-10,76.15,117.63,8.3s-32.57-73.39-18.83-113.27S2290.48,493.26,2245.24,495.27Z"/><path d="M2243.57,472.15s-32.85,8.72-51.61-8.38c0,0-15.42,62.67,46.24,65.69,0,0,24.13-1.68,21.79,14.41s-15.42,44.56-2,47.25,18.46-18.42,36.53-6c14.91,10.22-13.2,30.81-.81,48.24s37.67,22.14,44,19.46c0,0,0-8.72,5.7-19.11s70.59-63.55-6-147.22C2337.4,486.45,2302.21,455.73,2243.57,472.15Z"/><path d="M2234.59,675.36s15.46,2.73,24.7-.28-31.19,46.62-31.19,46.62Z"/><path class="cls-4" d="M2679,903.72h0l-.07.07-.06.06-.14.13-.14.13-.27.25q-2.73,2.64-5.52,5.24c-81.16,76.16-190.44,140.75-191.79,141.55h0c-12.44,76.91-12.82,185.5-12.82,185.5s-235.27,27.9-398.9,5.28-172.68-72.39-172.68-72.39l48.2-154.54c-196.07-43.73-282.78-211.89-285-257.89S1938,568.56,1938,568.56s17.71-2.64,37.32,15.46,1.89,49.39,1.89,49.39l-152.7,132.72s47.88,12.06,150.43-31.38,120.66-40.26,215.25-13,137.92,3.41,137.92,3.41,28.4-13.27,69.68-19.5,214.9,72.39,231.87,65.61c7.62-3-19.88-34.27-52.51-67.74h0c-40-41.06-87.73-85.51-87.73-85.51,49.77-9.62,68.43-49.53,68.43-49.53h0c2.11,1,137.66,63.59,194.51,175.82C2775.74,790.23,2735.26,849.52,2679,903.72Z"/><path d="M1944.75,1012.52s35.53,9.24,60.42,6.22-19.33,25-31.42,30.42c-15.24,6.8-22,17.39-26.9,38.2-3.23,13.71-32.46,25.17-32.46,25.17Z"/><path d="M2645.29,933.73c-89.85,72.89-162.91,116.2-164.29,117l-2.28-1.14L2494,940.47c2.36-20,4,7.42,30.54,34.35C2548.13,998.73,2645.29,933.73,2645.29,933.73Z"/><path d="M1821,767.45s-31.67-8.67-49.2-18.85c0,0-9.43-11.88,26.39-10.18s106.19-41.65,106.19-41.65Z"/><path d="M2623,773.92c7.62-3-13.16-37-45.79-70.44.77.13,25.39,4.52,38.75,23.44,13.57,19.23,40.34,26.76,43.74,39.21S2623,773.92,2623,773.92Z"/><path class="cls-5" d="M2681,899.51s-9.64,8.06-11.5,9.8c0,0,60.28-74.06,65.81-133.13,5.5-58.84-176.65-200.19-178.12-201.3l1.83-3c-1.24-2,135,60.35,191.87,172.58C2774.23,790.42,2731.33,846.06,2681,899.51Z"/><path d="M2468.16,1236.67s3.46,14-32.2,25.3l1.53-22.11Z"/><path d="M1925,2297.28s-53.3-4.57-74.29-28.45c0,0-96.4,70.7-119.33,82.73,0,0-27.55,18.29-15.21,47.28h0c39.56,2.22,208.15.57,208.15.57S1923.49,2318.58,1925,2297.28Z"/><path class="cls-6" d="M1850.77,2268.83s9.54-74.51-15.53-85.48S1815.68,2211.71,1850.77,2268.83Z"/><path class="cls-6" d="M1850.77,2268.83s-46.13-44-60.2-7.83S1850.77,2268.83,1850.77,2268.83Z"/><line class="cls-7" x1="1716.67" y1="2382.97" x2="1921.44" y2="2382.97"/><path d="M2371.49,2297.28s-53.3-4.57-74.29-28.45c0,0-96.4,70.7-119.32,82.73,0,0-27.56,18.29-15.22,47.28h0c39.56,2.22,208.15.57,208.15.57S2369.92,2318.58,2371.49,2297.28Z"/><path class="cls-6" d="M2297.2,2268.83s9.54-74.51-15.53-85.48S2262.11,2211.71,2297.2,2268.83Z"/><path class="cls-6" d="M2297.2,2268.83s-46.13-44-60.2-7.83S2297.2,2268.83,2297.2,2268.83Z"/><line class="cls-7" x1="2163.1" y1="2382.97" x2="2367.87" y2="2382.97"/><path d="M2160.67,340.36a51.52,51.52,0,0,1,2,10.21,13.49,13.49,0,0,1-1.29,7.29,12.67,12.67,0,0,1-5,5.16,36.48,36.48,0,0,1-9.05,3.66,38.52,38.52,0,0,1-9.71,1.67,12.28,12.28,0,0,1-6.93-1.79,14.19,14.19,0,0,1-4.84-5.55,52,52,0,0,1-3.66-9.74,56.54,56.54,0,0,1-2.06-10.39,11.79,11.79,0,0,1,6.21-12.25,38.71,38.71,0,0,1,9.14-3.68,38,38,0,0,1,9.62-1.64,13.64,13.64,0,0,1,6.89,1.6,12.61,12.61,0,0,1,4.93,5.52A54.33,54.33,0,0,1,2160.67,340.36ZM2141,292.73a5.14,5.14,0,0,1,.09,2.75,4.91,4.91,0,0,1-1.77,2.48,16.44,16.44,0,0,1-3.9,2.29,47.89,47.89,0,0,1-6.3,2.19,46.4,46.4,0,0,1-6.51,1.45,17.09,17.09,0,0,1-4.52.1,5,5,0,0,1-2.81-1.18,5.38,5.38,0,0,1-1.37-2.38L2061.23,126.7a8.14,8.14,0,0,1-.54-4,6.37,6.37,0,0,1,1.87-3.49,15.45,15.45,0,0,1,4.69-3,64.52,64.52,0,0,1,8.2-2.82,52.38,52.38,0,0,1,8.3-1.76,16.39,16.39,0,0,1,5.59.19,6.45,6.45,0,0,1,3.41,1.9,8.8,8.8,0,0,1,1.79,3.54Z"/><path class="cls-3" d="M1523.28,214.25V1915.94q-16.59,3.33-33.47,6.6a4.37,4.37,0,0,0-.5.09c-59.85,11.56-122.43,22.29-187,31.91-134.57,20.07-262.46,33.11-376.09,39.35-33.58,1.85-65.92,3.1-96.81,3.76q-18.35.39-36,.51V355Z"/><path class="cls-4" d="M1489.31,261.66v1661c-59.85,11.56-122.43,22.29-187,31.91-134.57,20.07-262.46,33.11-376.09,39.35-33.58,1.85-65.92,3.1-96.81,3.76V391.48l559.43-110.06Z"/><path class="cls-3" d="M1489.81,256.22V1922.54a4.37,4.37,0,0,0-.5.09c-59.85,11.56-122.43,22.29-187,31.91-134.57,20.07-262.46,33.11-376.09,39.35v-1597l462.62-115.5Z"/><polygon class="cls-3" points="793.46 356.36 1523.29 215.66 1489.82 189.37 759.99 330.07 793.46 356.36"/><path class="cls-3" d="M793.44,356.36v1641.8q-17.07.12-33.46,0V330.06Z"/><rect x="698.81" y="550.37" width="512.09" height="827.23" transform="translate(-160.83 1736.15) rotate(-79.96)"/><polygon class="cls-3" points="566.29 600.67 592.14 639.81 502.85 1144.06 477 1104.92 566.29 600.67"/><polygon class="cls-3" points="566.29 600.67 592.14 639.81 1406.7 784.07 1380.86 744.93 566.29 600.67"/><path class="cls-8" d="M844.17,991.2q-1.21,6.06-3.75,9.19c-1.68,2.09-3.63,2.9-5.85,2.45l-26.83-5.38-10,50a3.93,3.93,0,0,1-1.26,2.33,6,6,0,0,1-3,1.21,20.55,20.55,0,0,1-5.14.11,67,67,0,0,1-7.83-1.19A64.59,64.59,0,0,1,773,1048a19.67,19.67,0,0,1-4.61-2.07,5.33,5.33,0,0,1-2.11-2.25,4.55,4.55,0,0,1-.16-2.61l10-50-97.28-19.53a10.72,10.72,0,0,1-3.53-1.29,6.32,6.32,0,0,1-2.23-2.55,9.34,9.34,0,0,1-.79-4.55,46.78,46.78,0,0,1,1-7.26q.72-3.49,1.44-6.21a34,34,0,0,1,1.73-4.91,29.91,29.91,0,0,1,2.34-4.12c.9-1.28,1.93-2.64,3.1-4.06L795.67,809.22a8.68,8.68,0,0,1,3.23-2,17.45,17.45,0,0,1,5-.92,39.62,39.62,0,0,1,7.14.38q4.17.55,9.8,1.68,6.18,1.25,10.69,2.63a51.64,51.64,0,0,1,7.15,2.68,11.71,11.71,0,0,1,3.92,2.79,3.65,3.65,0,0,1,.93,3.15L813.05,971.39l26.83,5.39q3.12.63,4.41,4.23T844.17,991.2Zm-36.6-156.65-.37-.07L704.56,949.59,781.37,965Z"/><path class="cls-8" d="M1043.11,977.24a271.49,271.49,0,0,1-14.35,49.11q-8.87,21.74-22.14,36a71.42,71.42,0,0,1-31.24,19.91q-18,5.67-41.67.91-22.41-4.5-36.15-15.58a63.17,63.17,0,0,1-20-28.48q-6.25-17.41-5.65-40.9t6.51-52.88a268,268,0,0,1,14.43-49q9-21.81,22.15-36.08a70.94,70.94,0,0,1,31.15-19.93q18-5.67,41.48-.94,22.62,4.53,36.34,15.61a63.22,63.22,0,0,1,20,28.48q6.26,17.41,5.65,40.9T1043.11,977.24ZM1010.33,973q3.57-17.84,5.13-32.23a192.6,192.6,0,0,0,1.25-25.75,83.14,83.14,0,0,0-2.67-20,45,45,0,0,0-6.89-14.77A34.52,34.52,0,0,0,996,870.35a52.55,52.55,0,0,0-15.43-5.48q-15.6-3.14-26.83,2.25t-19.41,17.14q-8.19,11.73-13.67,28.6a329,329,0,0,0-9.48,36.71q-5.36,26.65-6.34,45.85t2.62,32.17q3.62,13,11.82,20.15t21.44,9.85a47.09,47.09,0,0,0,18.77.33,38.54,38.54,0,0,0,15.31-6.77,52.83,52.83,0,0,0,12.25-12.93,104.59,104.59,0,0,0,9.72-17.93,167.38,167.38,0,0,0,7.59-22.09q3.29-12,5.93-25.2Z"/><path class="cls-8" d="M1225.65,1067.8q-1.2,6.06-3.76,9.18c-1.7,2.08-3.64,2.9-5.84,2.46l-26.83-5.38-10,50a3.93,3.93,0,0,1-1.26,2.32,5.85,5.85,0,0,1-3,1.22,21,21,0,0,1-5.14.11,82.16,82.16,0,0,1-15.33-3.07,19.63,19.63,0,0,1-4.6-2.08,5.3,5.3,0,0,1-2.11-2.24,4.55,4.55,0,0,1-.16-2.61l10-50-97.28-19.53a10.43,10.43,0,0,1-3.53-1.29,6.32,6.32,0,0,1-2.23-2.55,9.12,9.12,0,0,1-.79-4.55,46.78,46.78,0,0,1,1-7.26q.69-3.49,1.44-6.21a34,34,0,0,1,1.73-4.91,29.34,29.34,0,0,1,2.34-4.12q1.35-1.93,3.09-4.06l113.76-127.42a8.68,8.68,0,0,1,3.23-2,17.45,17.45,0,0,1,5-.92,39.62,39.62,0,0,1,7.14.38c2.78.37,6,.93,9.8,1.68q6.18,1.24,10.68,2.63a50.52,50.52,0,0,1,7.16,2.68A11.65,11.65,0,0,1,1224,893a3.65,3.65,0,0,1,.93,3.15L1194.46,1048l26.83,5.39q3.12.63,4.4,4.23T1225.65,1067.8ZM1189,911.15l-.37-.07L1086,1026.19l76.81,15.43Z"/><polygon points="566.29 600.67 1100.04 277.06 1380.86 744.93 1406.7 784.07 1097.57 311.52 592.14 639.81 566.29 600.67"/><line class="cls-9" x1="1405.62" y1="2400" x2="2110.63" y2="2400"/><line class="cls-9" x1="2146.32" y1="2400" x2="2418.63" y2="2400"/><line class="cls-9" x1="2451.53" y1="2400" x2="2615.73" y2="2400"/><path class="cls-9" d="M477,297S-2.33,848.87,3,1357.67s283.79,597,283.79,597"/></g></g></g></g></svg>